<?xml version="1.0" encoding="UTF-8"?>
<svg width="52px" height="52px" viewBox="0 0 52 52" version="1.1" xmlns="http://www.w3.org/2000/svg" xmlns:xlink="http://www.w3.org/1999/xlink">
    <title>切片</title>
    <defs>
        <linearGradient x1="50%" y1="0.82222465%" x2="50%" y2="100%" id="linearGradient-1">
            <stop stop-color="#F75151" offset="0%"></stop>
            <stop stop-color="#FF9E9E" offset="100%"></stop>
        </linearGradient>
    </defs>
    <g id="页面-1" stroke="none" stroke-width="1" fill="none" fill-rule="evenodd">
        <g id="切图" transform="translate(-137.000000, -452.000000)">
            <g id="ico/高风险" transform="translate(137.000000, 452.000000)">
                <rect id="矩形" x="0" y="0" width="52" height="52"></rect>
                <path d="M26.8958359,2.51401248 C26.9973267,2.58997419 37.2540431,9.94243414 46.0652852,9.21130274 C46.4249068,9.18234497 46.780416,9.30582468 47.0494379,9.55313041 C47.3144947,9.78896731 47.4698676,10.129472 47.4769292,10.4899914 L47.4769292,27.3598199 C47.4984576,28.5530517 47.5046085,46.2426335 26.4714201,51.9207709 C26.281213,51.9752359 26.0845026,52.0018728 25.8870794,52 L25.871702,51.9935676 C24.9699491,51.9088375 24.0905418,51.6568457 23.2759993,51.2497759 C23.1253009,51.1738142 22.9684516,51.1105128 22.8146777,51.0567066 C20.3631435,50.1590842 18.0342696,48.9399814 15.8856276,47.4295352 C8.87331493,42.6386796 4.61855415,34.587543 4.52173913,25.9260427 L4.52173913,10.4804962 C4.5213072,9.81324567 5.0194912,9.25782399 5.66581692,9.2049726 L5.93645892,9.2049726 C6.02872323,9.2049726 15.3105134,9.92344372 25.3642483,2.51084741 C25.8234136,2.17754362 26.4366706,2.17754362 26.8958359,2.51084741 L26.8958359,2.51401248 Z" id="路径" fill="#F76161" fill-rule="nonzero" opacity="0.100000001"></path>
                <path d="M26.1285995,6.82505067 C26.2126918,6.8886686 34.711114,13.0463538 42.0118574,12.4340313 C42.3098296,12.4097791 42.6043944,12.5131934 42.8272982,12.7203119 C43.0469168,12.9178253 43.1756543,13.202998 43.1815053,13.504933 L43.1815053,27.6334144 C43.1993431,28.632746 43.2044396,43.4477708 25.7769406,48.2032109 C25.6193405,48.2488252 25.4563518,48.2711337 25.2927726,48.2695652 L25.2800314,48.2641781 C24.5328646,48.1932166 23.8042129,47.9821735 23.1293062,47.6412525 C23.0044419,47.5776346 22.874481,47.5246197 22.7470684,47.479557 C20.7157972,46.7277982 18.7861588,45.7067996 17.0058554,44.4418009 C11.1956535,40.4294594 7.67028027,33.6866325 7.59006211,26.432626 L7.59006211,13.4969808 C7.58970423,12.9381585 8.00248525,12.4729928 8.53801228,12.4287298 L8.76225851,12.4287298 C8.83870608,12.4287298 16.5293322,13.0304493 24.8595697,6.82239993 C25.240021,6.543258 25.7481482,6.543258 26.1285995,6.82239993 L26.1285995,6.82505067 Z" id="路径" fill="url(#linearGradient-1)" fill-rule="nonzero"></path>
                <polygon id="Fill-11" fill="#FFFFFF" points="28.7465853 19.6348858 23.0331132 18.6274929 19.9505577 27.3854877 23.6402112 28.035848 22.9427854 36.7144494 29.7663388 25.0089154 26.7674553 24.4797845"></polygon>
            </g>
        </g>
    </g>
</svg>