<?xml version="1.0" encoding="UTF-8"?>
<svg width="20px" height="20px" viewBox="0 0 20 20" version="1.1" xmlns="http://www.w3.org/2000/svg" xmlns:xlink="http://www.w3.org/1999/xlink">
    <title>ico/close备份</title>
    <g id="20240402阶段2" stroke="none" stroke-width="1" fill="none" fill-rule="evenodd">
        <g id="1大宗贸易-6个人中心-1账户信息" transform="translate(-1372.000000, -22.000000)">
            <g id="控件/头像" transform="translate(1216.000000, 9.000000)">
                <g id="ico/close备份" transform="translate(156.000000, 13.000000)">
                    <rect id="矩形" x="0" y="0" width="20" height="20"></rect>
                    <g id="编组" transform="translate(2.000000, 1.000000)" fill="#FFFFFF" fill-rule="nonzero">
                        <path d="M15.3,12.8571429 L16.1428571,12.8571429 C16.6162441,12.8571429 17,13.2408988 17,13.7142857 C17,14.1876726 16.6162441,14.5714286 16.1428571,14.5714286 L0.857142857,14.5714286 C0.383755929,14.5714286 8.98877287e-16,14.1876726 0,13.7142857 C-8.98877287e-16,13.2408988 0.383755929,12.8571429 0.857142857,12.8571429 L1.7,12.8571429 L1.7,12.8571429 L1.7,6.85714286 C1.7,3.07004571 4.744462,0 8.5,0 C12.255555,0 15.3,3.07004571 15.3,6.85714286 L15.3,12.8571429 Z M13.6,12.8571429 L13.6,6.85714286 C13.6,4.01682 11.316645,1.71428571 8.5,1.71428571 C5.6833465,1.71428571 3.4,4.01682 3.4,6.85714286 L3.4,12.8571429 L13.6,12.8571429 Z M6.80714286,16.2857143 L10.1928571,16.2857143 C10.6662441,16.2857143 11.05,16.6694702 11.05,17.1428571 C11.05,17.6162441 10.6662441,18 10.1928571,18 L6.80714286,18 C6.33375593,18 5.95,17.6162441 5.95,17.1428571 C5.95,16.6694702 6.33375593,16.2857143 6.80714286,16.2857143 Z" id="形状"></path>
                    </g>
                </g>
            </g>
        </g>
    </g>
</svg>