<?xml version="1.0" encoding="UTF-8"?>
<svg width="115px" height="32px" viewBox="0 0 115 32" version="1.1" xmlns="http://www.w3.org/2000/svg" xmlns:xlink="http://www.w3.org/1999/xlink">
    <title>切片</title>
    <defs>
        <linearGradient x1="50%" y1="0.103802448%" x2="50%" y2="100%" id="linearGradient-1">
            <stop stop-color="#EEF6FF" offset="0%"></stop>
            <stop stop-color="#FFFFFF" offset="80.8245061%"></stop>
            <stop stop-color="#DBECFF" offset="100%"></stop>
        </linearGradient>
        <linearGradient x1="50%" y1="2.01513062%" x2="50%" y2="62.8628821%" id="linearGradient-2">
            <stop stop-color="#FFFFFF" stop-opacity="0" offset="0%"></stop>
            <stop stop-color="#6693FF" offset="100%"></stop>
        </linearGradient>
        <path d="M0,0 L114,0 L96.5543305,26.5838773 C94.3360796,29.9640691 90.5648155,32 86.5217556,32 L26.6509717,32 C22.5134913,32 18.6678523,29.8685636 16.4749921,26.3599873 L0,0 L0,0 Z" id="path-3"></path>
        <filter x="-1.3%" y="-4.7%" width="102.6%" height="109.4%" filterUnits="objectBoundingBox" id="filter-4">
            <feOffset dx="0" dy="-3" in="SourceAlpha" result="shadowOffsetInner1"></feOffset>
            <feComposite in="shadowOffsetInner1" in2="SourceAlpha" operator="arithmetic" k2="-1" k3="1" result="shadowInnerInner1"></feComposite>
            <feColorMatrix values="0 0 0 0 0.826067073   0 0 0 0 0.877223816   0 0 0 0 1  0 0 0 1 0" type="matrix" in="shadowInnerInner1"></feColorMatrix>
        </filter>
    </defs>
    <g id="20240219阶段1" stroke="none" stroke-width="1" fill="none" fill-rule="evenodd">
        <g id="切图" transform="translate(-713.000000, -700.000000)">
            <g id="控件/收起/背景" transform="translate(713.825093, 700.000000)">
                <use fill="url(#linearGradient-1)" fill-rule="evenodd" xlink:href="#path-3"></use>
                <use fill="black" fill-opacity="1" filter="url(#filter-4)" xlink:href="#path-3"></use>
                <path stroke="url(#linearGradient-2)" stroke-width="1" d="M113.073823,0.5 L96.1363066,26.3095491 C94.0104828,29.5488996 90.3963547,31.5 86.5217556,31.5 L86.5217556,31.5 L26.6509717,31.5 C22.6858863,31.5 19.0004823,29.4573735 16.8989912,26.0949878 L16.8989912,26.0949878 L0.902123821,0.5 L113.073823,0.5 Z" stroke-linejoin="square"></path>
            </g>
        </g>
    </g>
</svg>