<?xml version="1.0" encoding="UTF-8"?>
<svg width="18px" height="18px" viewBox="0 0 18 18" version="1.1" xmlns="http://www.w3.org/2000/svg" xmlns:xlink="http://www.w3.org/1999/xlink">
    <title>切片</title>
    <g id="20240402阶段2" stroke="none" stroke-width="1" fill="none" fill-rule="evenodd">
        <g id="1大宗贸易-3企业资信档案库-1详情-7经营信息-1企业图谱-1全屏" transform="translate(-1208.000000, -62.000000)">
            <g id="编组-16" transform="translate(1198.000000, 55.000000)">
                <g id="ico/操作图标/放大镜备份-5" transform="translate(10.000000, 7.000000)">
                    <polygon id="路径" transform="translate(9.000000, 9.000000) scale(1, -1) translate(-9.000000, -9.000000) " points="0 0 18 0 18 18 0 18"></polygon>
                    <g id="编组" transform="translate(3.000000, 3.000000)" fill="#383B40" fill-rule="nonzero">
                        <path d="M11.0619218,1.5428821 L8.68172348,3.83030569 C8.49719809,3.9977947 8.20744242,3.9938516 8.02793001,3.82140863 C7.8484176,3.64896566 7.84431286,3.37062096 8.01866823,3.19336244 L10.3998667,0.906899562 L8.49170764,0.906899562 C8.23266451,0.906899562 8.02266856,0.705173538 8.02266856,0.456331876 C8.02266856,0.207490214 8.23266451,0.00576419027 8.49170764,0.00576419027 L11.5309609,0.00576419027 C11.7899825,0.00576419027 12,0.207510915 12,0.456331876 L12,3.3758952 C12,3.62473686 11.790004,3.82646288 11.5309609,3.82646288 C11.2719178,3.82646288 11.0619218,3.62473686 11.0619218,3.3758952 L11.0619218,1.5428821 Z M10.2858572,10.0393013 L7.89565797,7.74323145 C7.7658586,7.62244893 7.71399851,7.44378837 7.76000887,7.2759136 C7.80601923,7.10803882 7.94274032,6.97707301 8.11762672,6.93334967 C8.29251311,6.88962633 8.47835056,6.9399493 8.60371698,7.06497818 L10.9929161,9.36008734 L10.9929161,7.40410481 C10.9929617,7.13884621 11.2168246,6.92383489 11.4929577,6.92383489 C11.7690908,6.92383489 11.9929538,7.13884621 11.9929994,7.40410481 L11.9929994,10.5196507 C11.9929994,10.7849403 11.7691231,11 11.4929577,11 L8.24968748,11 C7.97355438,10.9999561 7.74972849,10.7849093 7.74972849,10.5196507 C7.74972849,10.2543921 7.97355438,10.0393452 8.24968748,10.0393013 L10.2858572,10.0393013 L10.2858572,10.0393013 Z M1.70714227,0.960698688 L4.12134345,3.27982532 C4.25133271,3.40042875 4.30346517,3.57902435 4.25770366,3.74696871 C4.21194214,3.91491306 4.07540822,4.0460701 3.90057884,4.09002946 C3.72574947,4.13398883 3.53983219,4.08390941 3.41428452,3.9590393 L1.00008334,1.63991266 L1.00008334,3.59589519 C1.00003768,3.86115379 0.776174777,4.07616511 0.500041676,4.07616511 C0.223908575,4.07616511 4.56680866e-05,3.86115379 6.86759449e-09,3.59589519 L6.86759449e-09,0.480349351 C6.86759449e-09,0.21505973 0.223876291,0 0.500041682,0 L3.74331194,0 C4.01944504,4.38630181e-05 4.24327093,0.215090742 4.24327093,0.480349344 C4.24327093,0.745607946 4.01944504,0.960654825 3.74331194,0.960698688 L1.70714227,0.960698688 Z M1.00008334,9.18427948 L3.41428452,6.86515284 C3.60980962,6.67759308 3.92659456,6.67780814 4.12184349,6.86563319 C4.31709242,7.05345824 4.31686854,7.35776775 4.12134345,7.54532751 L1.70714227,9.86445415 L3.74331194,9.86445415 C3.92197932,9.86442577 4.08708742,9.95597363 4.17642964,10.1046059 C4.26577186,10.2532381 4.26577186,10.4363688 4.17642964,10.5850011 C4.08708742,10.7336334 3.92197932,10.8251528 3.74331194,10.8251528 L0.500041682,10.8251528 C0.223876296,10.8251528 0,10.6100931 0,10.3448035 L0,7.22925764 C0,7.05762643 0.0952714044,6.89902051 0.249996969,6.81319671 C0.404722533,6.72737291 0.595360818,6.72737291 0.750086383,6.81319671 C0.904811947,6.89902051 1.00011289,7.05762643 1.00008334,7.22925764 L1.00008334,9.18524018 L1.00008334,9.18427948 Z" id="形状"></path>
                    </g>
                </g>
            </g>
        </g>
    </g>
</svg>